<?xml version="1.0" encoding="UTF-8" standalone="no"?>
<!-- Created with Inkscape (http://www.inkscape.org/) -->

<svg
   xmlns:dc="http://purl.org/dc/elements/1.1/"
   xmlns:cc="http://creativecommons.org/ns#"
   xmlns:rdf="http://www.w3.org/1999/02/22-rdf-syntax-ns#"
   xmlns:svg="http://www.w3.org/2000/svg"
   xmlns="http://www.w3.org/2000/svg"
   xmlns:sodipodi="http://sodipodi.sourceforge.net/DTD/sodipodi-0.dtd"
   xmlns:inkscape="http://www.inkscape.org/namespaces/inkscape"
   width="1000"
   height="1000"
   id="svg2"
   version="1.1"
   inkscape:version="0.48.4 r9939"
   sodipodi:docname="tbmonogram.svg">
  <defs
     id="defs4" />
  <sodipodi:namedview
     id="base"
     pagecolor="#ffffff"
     bordercolor="#666666"
     borderopacity="1.0"
     inkscape:pageopacity="0.0"
     inkscape:pageshadow="2"
     inkscape:zoom="0.541"
     inkscape:cx="206.74423"
     inkscape:cy="500"
     inkscape:document-units="px"
     inkscape:current-layer="layer1"
     showgrid="false"
     inkscape:snap-to-guides="true"
     inkscape:window-width="1366"
     inkscape:window-height="713"
     inkscape:window-x="0"
     inkscape:window-y="30"
     inkscape:window-maximized="1" />
  <metadata
     id="metadata7">
    <rdf:RDF>
      <cc:Work
         rdf:about="">
        <dc:format>image/svg+xml</dc:format>
        <dc:type
           rdf:resource="http://purl.org/dc/dcmitype/StillImage" />
        <dc:title />
      </cc:Work>
    </rdf:RDF>
  </metadata>
  <g
     inkscape:label="Layer 1"
     inkscape:groupmode="layer"
     id="layer1"
     transform="translate(0,-52.362183)">
    <path
       style="fill:#262626;fill-opacity:1;stroke:#000000;stroke-width:1px;stroke-linecap:butt;stroke-linejoin:miter;stroke-opacity:1"
       d="M 50 47.625 L 50 197.625 L 150 197.625 L 150 147.625 L 425 147.625 L 425 422.625 L 575 422.625 L 575 147.625 L 850 147.625 L 850 197.625 L 950 197.625 L 950 47.625 L 50 47.625 z M 425 572.625 L 425 847.625 L 300 847.625 L 300 947.625 L 500 947.625 L 700 947.625 L 700 847.625 L 575 847.625 L 575 572.625 L 425 572.625 z "
       transform="translate(0,52.362183)"
       id="path2987" />
    <path
       style="fill:#8c8c8c;fill-opacity:1;stroke:none;stroke-width:1px;stroke-linecap:butt;stroke-linejoin:miter;stroke-opacity:1"
       d="M 175 172.625 L 175 822.625 L 400 822.625 L 400 722.625 L 300 722.625 L 300 547.625 L 625 547.625 L 700 622.625 L 700 722.625 L 600 722.625 L 600 822.625 L 825 822.625 L 825 572.625 L 750 497.625 L 825 422.625 L 825 172.625 L 600 172.625 L 600 272.625 L 700 272.625 L 700 372.625 L 625 447.625 L 300 447.625 L 300 272.625 L 400 272.625 L 400 172.625 L 175 172.625 z "
       transform="translate(0,52.362183)"
       id="path2995" />
  </g>
</svg>
